<svg width="44" height="44" viewBox="0 0 44 44" fill="none" xmlns="http://www.w3.org/2000/svg">
<g filter="url(#filter0_d)">
<circle cx="22" cy="22" r="17" fill="white" stroke="#2271B1" stroke-width="2"/>
<path d="M31.9292 21.4834C31.9292 21.4834 27.7243 16.5 21.9999 16.5C16.2755 16.5 12.0707 21.4834 12.0707 21.4834C11.8309 21.767 11.8309 22.2319 12.0707 22.5164C12.0707 22.5164 16.2755 27.4998 21.9999 27.4998C27.7243 27.4998 31.9292 22.5164 31.9292 22.5164C32.169 22.2319 32.169 21.7679 31.9292 21.4834ZM21.9999 26.2341C19.6616 26.2341 17.7658 24.3383 17.7658 22C17.7658 19.6617 19.6616 17.7659 21.9999 17.7659C24.3383 17.7659 26.2341 19.6617 26.2341 22C26.2341 24.3383 24.3383 26.2341 21.9999 26.2341Z" fill="#2271B1"/>
<path d="M23.9972 21.1141C23.4996 21.1141 23.0965 20.711 23.0965 20.2134C23.0965 20.0837 23.124 19.9599 23.1739 19.8482C22.825 19.6574 22.4254 19.5491 22.0008 19.5491C20.6473 19.5491 19.5498 20.6465 19.5498 22.0001C19.5489 23.3536 20.6464 24.4512 21.9999 24.4512C23.3535 24.4512 24.451 23.3537 24.451 22.0001C24.451 21.6719 24.3857 21.359 24.2688 21.072C24.1828 21.0995 24.0917 21.1141 23.9972 21.1141L23.9972 21.1141Z" fill="#2271B1"/>
</g>
<defs>
<filter id="filter0_d" x="0" y="0" width="44" height="44" filterUnits="userSpaceOnUse" color-interpolation-filters="sRGB">
<feFlood flood-opacity="0" result="BackgroundImageFix"/>
<feColorMatrix in="SourceAlpha" type="matrix" values="0 0 0 0 0 0 0 0 0 0 0 0 0 0 0 0 0 0 127 0" result="hardAlpha"/>
<feOffset/>
<feGaussianBlur stdDeviation="2"/>
<feComposite in2="hardAlpha" operator="out"/>
<feColorMatrix type="matrix" values="0 0 0 0 0 0 0 0 0 0 0 0 0 0 0 0 0 0 0.25 0"/>
<feBlend mode="normal" in2="BackgroundImageFix" result="effect1_dropShadow"/>
<feBlend mode="normal" in="SourceGraphic" in2="effect1_dropShadow" result="shape"/>
</filter>
</defs>
</svg>
